<svg width="96" height="96" viewBox="0 0 96 96" fill="none" xmlns="http://www.w3.org/2000/svg">
<circle cx="48" cy="48" r="48" fill="#006838"/>
<g clip-path="url(#clip0_36_245)">
<path d="M37.1348 31.3198C36.9872 31.1299 36.8009 30.9736 36.5883 30.8613C36.3757 30.749 36.1416 30.6832 35.9016 30.6683C35.6616 30.6534 35.4211 30.6898 35.1963 30.7749C34.9714 30.8601 34.7672 30.9921 34.5973 31.1623L32.0123 33.7498C30.8048 34.9598 30.3598 36.6723 30.8873 38.1748C33.0766 44.3937 36.638 50.04 41.3073 54.6948C45.9621 59.364 51.6083 62.9253 57.8273 65.1148C59.3298 65.6423 61.0423 65.1973 62.2523 63.9898L64.8373 61.4048C65.0074 61.2348 65.1394 61.0306 65.2246 60.8058C65.3098 60.5809 65.3461 60.3405 65.3312 60.1005C65.3163 59.8605 65.2505 59.6264 65.1382 59.4138C65.0259 59.2011 64.8696 59.0148 64.6798 58.8673L58.9123 54.3823C58.7094 54.225 58.4735 54.1158 58.2224 54.0629C57.9712 54.0101 57.7113 54.015 57.4623 54.0773L51.9873 55.4448C51.2565 55.6274 50.4908 55.6177 49.7649 55.4166C49.0389 55.2155 48.3774 54.8299 47.8448 54.2973L41.7048 48.1548C41.1717 47.6224 40.7856 46.961 40.5841 46.235C40.3825 45.5091 40.3724 44.7433 40.5548 44.0123L41.9248 38.5373C41.987 38.2883 41.9919 38.0283 41.9391 37.7772C41.8863 37.526 41.7771 37.2901 41.6198 37.0873L37.1348 31.3198ZM32.7098 29.2773C33.1473 28.8396 33.6728 28.5001 34.2516 28.2812C34.8304 28.0622 35.4491 27.969 36.0667 28.0075C36.6843 28.046 37.2867 28.2155 37.8337 28.5047C38.3808 28.7939 38.8601 29.1961 39.2398 29.6848L43.7248 35.4498C44.5473 36.5073 44.8373 37.8848 44.5123 39.1848L43.1448 44.6598C43.0741 44.9433 43.0779 45.2404 43.1559 45.522C43.2338 45.8037 43.3833 46.0604 43.5898 46.2673L49.7323 52.4098C49.9394 52.6166 50.1965 52.7664 50.4787 52.8444C50.7608 52.9223 51.0583 52.9259 51.3423 52.8548L56.8148 51.4873C57.4563 51.3269 58.1259 51.3144 58.773 51.4508C59.42 51.5873 60.0276 51.869 60.5498 52.2748L66.3148 56.7598C68.3873 58.3723 68.5773 61.4348 66.7223 63.2873L64.1373 65.8723C62.2873 67.7223 59.5223 68.5348 56.9448 67.6273C50.3477 65.3061 44.358 61.5294 39.4198 56.5773C34.468 51.6398 30.6913 45.6509 28.3698 39.0548C27.4648 36.4798 28.2773 33.7123 30.1273 31.8623L32.7123 29.2773H32.7098ZM55.4998 29.2498C55.4998 28.9182 55.6315 28.6003 55.8659 28.3659C56.1003 28.1315 56.4183 27.9998 56.7498 27.9998H66.7498C67.0813 27.9998 67.3992 28.1315 67.6337 28.3659C67.8681 28.6003 67.9998 28.9182 67.9998 29.2498V39.2498C67.9998 39.5813 67.8681 39.8992 67.6337 40.1336C67.3992 40.3681 67.0813 40.4998 66.7498 40.4998C66.4183 40.4998 66.1003 40.3681 65.8659 40.1336C65.6315 39.8992 65.4998 39.5813 65.4998 39.2498V32.2673L55.1348 42.6348C54.9001 42.8695 54.5817 43.0013 54.2498 43.0013C53.9178 43.0013 53.5995 42.8695 53.3648 42.6348C53.1301 42.4 52.9982 42.0817 52.9982 41.7498C52.9982 41.4178 53.1301 41.0995 53.3648 40.8648L63.7323 30.4998H56.7498C56.4183 30.4998 56.1003 30.3681 55.8659 30.1336C55.6315 29.8992 55.4998 29.5813 55.4998 29.2498Z" fill="white"/>
</g>
<defs>
<clipPath id="clip0_36_245">
<rect width="40" height="40" fill="white" transform="translate(28 28)"/>
</clipPath>
</defs>
</svg>
