<svg width="52" height="70" viewBox="0 0 52 70" fill="none" xmlns="http://www.w3.org/2000/svg">
<g id="Logo">
<g id="Vector">
<path fill-rule="evenodd" clip-rule="evenodd" d="M34.2072 65.5V57.6612H35.3226V65.5H37.2979V57.6612H45.2235V58.7308C44.8755 58.5159 44.551 58.4084 44.25 58.4084C43.9866 58.4084 43.7326 58.4817 43.4881 58.6282C43.2435 58.765 43.0413 58.9457 42.8814 59.1703C42.6462 58.9164 42.3828 58.7015 42.0913 58.5256C41.7997 58.3498 41.4751 58.2424 41.1177 58.2033C40.591 58.2131 40.1395 58.2912 39.7632 58.4377C39.387 58.5745 39.0766 58.765 38.832 59.0092C38.5968 59.2436 38.4228 59.522 38.3099 59.8443C38.1971 60.1667 38.1406 60.5134 38.1406 60.8846C38.1406 61.2753 38.1971 61.6319 38.3099 61.9542C38.4228 62.2766 38.5733 62.5549 38.7614 62.7894C38.959 63.014 39.18 63.1899 39.4246 63.3168C39.6786 63.4438 39.9466 63.5073 40.2288 63.5073C40.4828 63.5073 40.7179 63.4683 40.9343 63.3901C41.16 63.3022 41.3482 63.1899 41.4987 63.0531C41.6586 62.9066 41.7808 62.7405 41.8655 62.5549C41.9596 62.3694 42.0066 62.174 42.0066 61.9689C42.0066 61.8419 41.9784 61.7002 41.9219 61.544C41.8749 61.3877 41.795 61.2411 41.6821 61.1044C41.5786 60.9676 41.4469 60.8553 41.287 60.7674C41.1271 60.6697 40.939 60.6209 40.7226 60.6209C40.5345 60.6209 40.3511 60.66 40.1724 60.7381C40.0031 60.8162 39.8573 60.9335 39.735 61.0897V61.0018C39.735 60.9335 39.7397 60.8407 39.7491 60.7234C39.7679 60.5965 39.8102 60.4744 39.8761 60.3571C39.9419 60.2399 40.036 60.1374 40.1583 60.0495C40.29 59.9615 40.464 59.9176 40.6803 59.9176C40.9437 59.9176 41.1694 59.9615 41.3576 60.0495C41.5551 60.1276 41.7244 60.235 41.8655 60.3718C42.016 60.5085 42.143 60.6648 42.2465 60.8407C42.3499 61.0067 42.4393 61.1728 42.5145 61.3388L42.7685 61.793L44.0525 60.87L43.869 60.5769L44.0101 60.489C44.1042 60.4206 44.2218 60.3864 44.3629 60.3864C44.504 60.3864 44.6262 60.4158 44.7297 60.4744C44.8332 60.5232 44.9178 60.5867 44.9837 60.6648C45.0495 60.7332 45.1012 60.8065 45.1389 60.8846C45.1765 60.9628 45.2 61.0214 45.2094 61.0604L45.2235 65.5H47.1847V57.6612H48.3159V65.5H50.2912V57.6612H50.9967V56.3865H32.2319V57.6319C31.9121 57.2998 31.4653 57.0116 30.8915 56.7674C30.3272 56.5232 29.6311 56.4011 28.8033 56.4011C27.6652 56.4011 26.3295 56.8162 24.7963 57.6465L26.0661 59.2875L26.3765 59.478C26.5553 59.5855 26.7575 59.776 26.9832 60.0495C27.209 60.3132 27.4159 60.6648 27.6041 61.1044L26.2355 61.793L27.4065 63.3901L32.2319 60.6941V65.5H34.2072ZM31.4418 59.141L29.3113 60.2253C29.1796 59.9127 29.0197 59.5952 28.8316 59.2729C28.6528 58.9408 28.4459 58.677 28.2108 58.4817C28.5212 58.4231 28.8457 58.3938 29.1843 58.3938C29.5511 58.3938 29.9368 58.4524 30.3413 58.5696C30.7457 58.6868 31.1126 58.8773 31.4418 59.141Z" fill="#62A73B"/>
<path fill-rule="evenodd" clip-rule="evenodd" d="M10.9718 65.5V57.6612H12.107V65.5H14.0823V57.6612H15.4894V61.7784C15.4894 61.837 15.527 61.9298 15.6023 62.0568C15.6869 62.174 15.7998 62.2961 15.9409 62.4231C16.0914 62.5501 16.2701 62.6624 16.4771 62.7601C16.6934 62.848 16.9333 62.8919 17.1966 62.8919C17.3001 62.8919 17.413 62.8871 17.5353 62.8773C17.6575 62.8578 17.7845 62.8236 17.9162 62.7747C18.4336 62.5891 18.8521 62.3987 19.1719 62.2033C19.5012 62.0079 19.7598 61.8126 19.948 61.6172C20.1361 61.4219 20.2725 61.2265 20.3571 61.0311C20.4418 60.8358 20.5029 60.6453 20.5405 60.4597L20.5829 60.2985L20.8086 60.3425C21.1096 60.4011 21.3589 60.489 21.5564 60.6062C21.7634 60.7234 21.8668 60.8651 21.8668 61.0311C21.8668 61.2851 21.7398 61.5244 21.4859 61.7491C21.2319 61.9737 20.9121 62.1789 20.5264 62.3645C20.1408 62.5403 19.7222 62.7015 19.2707 62.848C18.8192 62.9945 18.3912 63.1166 17.9868 63.2143C17.5823 63.312 17.2343 63.3901 16.9427 63.4487C16.6511 63.5073 16.4771 63.5415 16.4206 63.5513L16.4065 65.2216L22.8827 67.141L23.7293 65.3388L20.0467 64.2985L20.4277 64.152C20.4465 64.152 20.4606 64.1471 20.47 64.1374L20.5123 64.1227C20.7569 64.025 21.0626 63.8834 21.4294 63.6978C21.7963 63.5122 22.149 63.2827 22.4876 63.0092C22.8263 62.7356 23.1131 62.4231 23.3483 62.0714C23.5929 61.7198 23.7151 61.3291 23.7151 60.8993C23.7151 60.4109 23.607 60.0153 23.3906 59.7125C23.1743 59.3999 22.9015 59.1606 22.5723 58.9945C22.2525 58.8187 21.8997 58.7015 21.5141 58.6429C21.1284 58.5745 20.771 58.5403 20.4418 58.5403C20.1596 58.5403 19.8962 58.5549 19.6517 58.5843C19.4165 58.6038 19.219 58.6282 19.0591 58.6575L18.2548 58.4377C18.0949 58.3889 17.935 58.3352 17.7751 58.2766C17.6246 58.2082 17.4835 58.1203 17.3518 58.0128L17.1825 57.7784C17.1731 57.7686 17.1684 57.7589 17.1684 57.7491V57.6612H24.1243V56.3865H9.01057V57.2802L8.85537 57.1777C8.71428 57.0897 8.54497 57.0018 8.34744 56.9139C8.14991 56.8162 7.92886 56.7332 7.6843 56.6648C7.44914 56.5867 7.19988 56.5232 6.9365 56.4744C6.67313 56.4255 6.40505 56.4011 6.13227 56.4011C5.82186 56.4011 5.51146 56.4402 5.20105 56.5183C4.89065 56.5867 4.58495 56.7137 4.28395 56.8993C3.99235 57.0751 3.71017 57.3144 3.43739 57.6172C3.16461 57.92 2.91534 58.2961 2.68959 58.7454L3.66314 60.7821C3.9171 60.8407 4.27454 60.87 4.73545 60.87C5.19635 60.87 5.66196 60.8407 6.13227 60.7821L6.11816 60.7967C6.05232 60.8651 5.92063 60.9725 5.7231 61.119C5.52557 61.2656 5.29041 61.4219 5.01763 61.5879C4.74485 61.754 4.45326 61.9249 4.14285 62.1007C3.83245 62.2668 3.53615 62.4035 3.25397 62.511L5.35626 63.6245V63.6099C5.43151 63.5708 5.54908 63.5024 5.70899 63.4048C5.8783 63.2973 6.06643 63.1703 6.27336 63.0238C6.4803 62.8675 6.69664 62.6917 6.92239 62.4963C7.14814 62.2912 7.35038 62.0763 7.52909 61.8517C7.71722 61.627 7.86772 61.3926 7.98059 61.1484C8.10287 60.9042 8.16401 60.6551 8.16401 60.4011C8.16401 60.0788 8.10287 59.815 7.98059 59.6099C7.86772 59.4048 7.71722 59.2485 7.52909 59.141C7.35038 59.0336 7.15285 58.9603 6.9365 58.9212C6.72957 58.8822 6.53203 58.8626 6.34391 58.8626C5.84538 58.8626 5.36566 58.9212 4.90476 59.0385C4.90476 59.0092 4.94238 58.9554 5.01763 58.8773C5.10229 58.7991 5.21516 58.7259 5.35626 58.6575C5.50676 58.5794 5.68077 58.511 5.8783 58.4524C6.08524 58.3938 6.31569 58.3645 6.56966 58.3645C6.96472 58.3645 7.36919 58.467 7.78306 58.6722C8.19694 58.8773 8.60611 59.2778 9.01057 59.8736V65.5H10.9718ZM17.1684 61.0458L17.3095 61.0604C17.3189 61.0702 17.3848 61.0751 17.507 61.0751C17.6105 61.0751 17.7234 61.0653 17.8457 61.0458C17.9773 61.0263 18.0996 60.9921 18.2125 60.9432C18.3254 60.8846 18.4241 60.8065 18.5088 60.7088C18.5935 60.6111 18.6499 60.489 18.6781 60.3425C18.3771 60.2839 18.1326 60.2253 17.9444 60.1667C17.7563 60.0983 17.6058 60.0348 17.4929 59.9762C17.3895 59.9176 17.3142 59.8687 17.2672 59.8297C17.2201 59.7808 17.1919 59.7466 17.1825 59.7271L17.1684 59.7125V61.0458Z" fill="#006838"/>
<path d="M44.2005 11.4833C52.15 23.7625 46.6361 40.7987 32.8479 45.3877C31.1485 44.5105 29.498 44.2597 28.9081 44.0977C28.9081 44.0977 28.5218 39.6085 28.9081 37.6387C29.075 36.7862 29.2938 35.3203 30.681 34.6878C31.6557 34.2435 34.8913 32.3368 33.9447 26.9453C33.9447 26.9453 32.8361 31.3672 30.6461 31.9717C30.3061 32.0657 30.452 30.7858 31.3632 29.7835C31.3632 29.7835 27.8848 29.2518 26.3267 36.9785C24.7693 29.2515 21.2901 29.7835 21.2901 29.7835C22.2014 30.7858 22.3477 32.0657 22.0078 31.9717C19.8173 31.3672 18.7089 26.9453 18.7089 26.9453C17.7623 32.3368 20.9979 34.2435 21.9724 34.6878C23.3598 35.3203 23.5786 36.7865 23.7462 37.6387C24.1321 39.6085 23.7462 44.0977 23.7462 44.0977C23.1482 44.2615 21.4608 44.5165 19.7381 45.4228C5.92343 40.9055 0.280705 23.841 8.28196 11.4835C-0.814424 23.5225 3.31765 41.4098 16.9378 47.7343C31.9648 54.7103 49.0557 43.3138 49.0557 26.096C49.0555 20.5825 47.2415 15.5088 44.2005 11.4833Z" fill="#006838"/>
<path d="M26.2407 4.1315C37.4467 4.1315 46.5802 13.337 47.0179 24.8625C47.4849 12.5565 38.011 2.40375 26.2407 2.40375C14.4837 2.40375 4.9973 12.5398 5.46361 24.8625C5.90128 13.337 15.0345 4.1315 26.2407 4.1315Z" fill="#006838"/>
<path fill-rule="evenodd" clip-rule="evenodd" d="M16.0138 18.8503C17.1995 16.7198 14.8224 16.5335 13.3378 14.7507C12.4432 16.5955 13.5698 19.3172 15.4572 19.1075C15.4495 18.463 15.1659 17.6775 14.4293 16.952C15.4351 17.4863 16.0105 18.1725 16.0138 18.8503Z" fill="#62A73B"/>
<path fill-rule="evenodd" clip-rule="evenodd" d="M16.9778 14.1087C18.3107 13.054 16.3694 12.0113 16.4349 10.6003C15.1017 11.7483 15.191 13.8065 16.3851 14.1275C16.5748 13.8003 16.6147 12.9878 16.3629 12.459C16.7406 12.8427 16.9975 13.6597 16.9778 14.1087Z" fill="#62A73B"/>
<path fill-rule="evenodd" clip-rule="evenodd" d="M19.3026 10.849C20.4302 10.5152 19.4742 8.97075 19.9061 8.1085C18.7205 8.6575 18.1716 10.142 19.065 10.7805C19.2992 10.5465 19.3943 10.0613 19.3442 9.35475C19.5424 9.91775 19.4786 10.4007 19.3026 10.849Z" fill="#62A73B"/>
<path fill-rule="evenodd" clip-rule="evenodd" d="M25.0864 11.687C23.1747 11.231 25.232 8.63175 25.0103 7.27C26.851 8.7505 26.917 10.8915 25.7289 11.598C25.4095 11.2497 25.2342 10.201 25.4018 9.48C25.0407 10.06 24.9431 11.14 25.0864 11.687Z" fill="#62A73B"/>
<path fill-rule="evenodd" clip-rule="evenodd" d="M17.3832 28.2575C16.3006 29.9565 14.6796 27.0435 13.3734 26.781C15.3542 25.5112 17.3081 26.1985 17.5281 27.6015C17.1017 27.79 16.0947 27.5925 15.5032 27.1765C15.9002 27.7307 16.8398 28.2055 17.3832 28.2575Z" fill="#62A73B"/>
<path fill-rule="evenodd" clip-rule="evenodd" d="M28.8735 11.9295C27.7285 11.59 28.6794 10.0802 28.3523 9.24125C29.5567 9.799 30.0213 11.3683 29.1149 11.8593C28.9175 11.567 28.9459 11.111 28.9438 10.464C28.7948 10.9972 28.7505 11.4302 28.8735 11.9295Z" fill="#62A73B"/>
<path fill-rule="evenodd" clip-rule="evenodd" d="M39.8662 31.268C40.3633 30.1432 41.6556 31.3495 42.5035 31.1407C41.7909 32.292 40.2263 32.5312 39.8972 31.5265C40.2044 31.368 40.6346 31.4662 41.2507 31.562C40.7656 31.3275 40.3602 31.2167 39.8662 31.268Z" fill="#62A73B"/>
<path fill-rule="evenodd" clip-rule="evenodd" d="M41.4274 23.3565C40.9322 22.2307 42.6556 22.0028 43.0579 21.1995C43.4306 22.5128 42.5829 23.898 41.6344 23.501C41.7204 23.1552 42.0733 22.8818 42.5454 22.4603C42.0584 22.688 41.7127 22.9342 41.4274 23.3565Z" fill="#62A73B"/>
<path fill-rule="evenodd" clip-rule="evenodd" d="M38.0741 15.7462C37.5558 14.6322 39.2732 14.3655 39.6582 13.553C40.0593 14.8565 39.2415 16.262 38.2855 15.8865C38.363 15.539 38.7101 15.257 39.1731 14.825C38.6914 15.0637 38.3502 15.318 38.0741 15.7462Z" fill="#62A73B"/>
<path fill-rule="evenodd" clip-rule="evenodd" d="M26.2761 22.5005C25.3943 21.6685 26.8907 20.7535 26.9557 19.8508C27.7969 20.9043 27.5439 22.5252 26.5219 22.548C26.4694 22.1955 26.6895 21.8 26.9637 21.2188C26.6021 21.6278 26.3782 21.9958 26.2761 22.5005Z" fill="#62A73B"/>
<path fill-rule="evenodd" clip-rule="evenodd" d="M32.5072 10.1895C31.363 9.60775 32.6403 8.20575 32.4487 7.25875C33.6151 8.08175 33.8181 9.825 32.7747 10.163C32.9225 9.78325 33.0395 9.309 32.8481 8.6625C32.818 9.234 32.7809 9.6985 32.5072 10.1895Z" fill="#62A73B"/>
<path fill-rule="evenodd" clip-rule="evenodd" d="M35.7067 25.3575C35.1465 23.2762 38.0197 23.987 39.0893 22.7107C39.2299 25.185 37.3769 26.3025 36.1056 25.637C36.198 25.169 36.7284 24.6758 37.5731 24.3623C36.8326 24.4575 36.1253 24.8762 35.7067 25.3575Z" fill="#62A73B"/>
<path fill-rule="evenodd" clip-rule="evenodd" d="M38.6685 21.3915C37.3757 19.6983 40.2901 19.1978 40.8007 17.5908C41.8528 19.8158 40.5619 21.5907 39.1411 21.489C39.051 21.02 39.3565 20.3518 40.0179 19.7235C39.3715 20.109 38.8753 20.7798 38.6685 21.3915Z" fill="#62A73B"/>
<path fill-rule="evenodd" clip-rule="evenodd" d="M35.3239 32.0348C36.5676 30.3023 37.7814 33.0997 39.4083 33.199C37.6068 34.8262 35.6239 33.9857 35.3537 32.534C35.7676 32.3232 36.4684 32.458 37.2219 32.961C36.6973 32.4108 35.9467 32.0853 35.3239 32.0348Z" fill="#62A73B"/>
<path fill-rule="evenodd" clip-rule="evenodd" d="M10.8791 25.4625C9.79983 27.31 8.33516 24.6455 6.70607 24.7077C8.34985 22.9095 10.4012 23.55 10.8025 24.9685C10.4104 25.2192 9.70089 25.154 8.90452 24.728C9.47772 25.224 10.2551 25.4733 10.8791 25.4625Z" fill="#62A73B"/>
<path fill-rule="evenodd" clip-rule="evenodd" d="M17.4905 32.3432C18.7072 34.0965 15.7731 34.4562 15.1919 36.0375C14.2401 33.7642 15.6091 32.0528 17.023 32.2235C17.0921 32.6958 16.7572 33.3485 16.0685 33.9445C16.7317 33.59 17.2563 32.9442 17.4905 32.3432Z" fill="#62A73B"/>
<path fill-rule="evenodd" clip-rule="evenodd" d="M18.6136 22.7667C19.3693 23.6305 19.065 26.5127 20.7191 25.604C20.2817 25.2397 19.9047 24.5462 19.8127 23.8437C20.0393 24.389 20.4148 25.1527 20.9627 25.3455C21.6611 23.7662 19.9774 22.6445 18.6136 22.7667Z" fill="#62A73B"/>
<path fill-rule="evenodd" clip-rule="evenodd" d="M39.1449 29.7952C37.7395 29.0495 35.6224 30.6777 35.588 28.5795C36.146 28.9157 36.7573 29.0935 37.5245 28.9032C36.8644 28.8785 36.2226 28.7487 35.7565 28.2302C37.0084 27.1027 38.8279 28.2575 39.1449 29.7952Z" fill="#62A73B"/>
<path fill-rule="evenodd" clip-rule="evenodd" d="M32 12.591C30.6521 15.0293 32.9894 18.835 29.985 18.9297C30.5883 17.9617 30.7534 16.8262 30.393 15.4005C30.2994 16.5752 30.03 17.7052 29.1359 18.4955C27.3802 16.1715 29.4351 13.029 32 12.591Z" fill="#62A73B"/>
<path fill-rule="evenodd" clip-rule="evenodd" d="M45.6813 27.8385C43.1027 26.9803 40.0087 30.151 39.2899 27.12C40.3284 27.5298 41.4315 27.4598 42.6992 26.7955C41.5733 26.9455 40.4531 26.9095 39.521 26.1667C41.3424 23.8975 44.7316 25.3255 45.6813 27.8385Z" fill="#62A73B"/>
<path fill-rule="evenodd" clip-rule="evenodd" d="M36.458 15.76C35.2305 19.0598 29.7955 19.6965 32.0859 22.8215C32.5185 21.4458 33.4581 20.3785 35.0856 19.6158C33.9396 20.629 32.9013 21.775 33.0289 23.3232C36.608 23.27 38.0765 18.7135 36.458 15.76Z" fill="#62A73B"/>
<path fill-rule="evenodd" clip-rule="evenodd" d="M10.0719 18.3712C12.4523 20.9 17.6102 19.3137 16.6903 23.1237C15.7702 22.0335 14.4907 21.4325 12.8178 21.3685C14.1558 21.89 15.3364 22.624 15.9515 24.019C12.6427 25.4327 9.75386 21.8222 10.0719 18.3712Z" fill="#62A73B"/>
<path fill-rule="evenodd" clip-rule="evenodd" d="M19.1497 21.1188C19.7121 19.7295 18.0416 19.8995 17.5649 18.8857C17.0753 20.8158 17.9581 21.1368 18.9095 21.3525C18.87 20.9628 18.7441 20.5965 18.2573 20.2025C18.7939 20.4242 18.9593 20.6603 19.1497 21.1188Z" fill="#62A73B"/>
<path fill-rule="evenodd" clip-rule="evenodd" d="M26.0094 17.5985C24.4999 16.8655 26.2704 15.288 26.0847 13.8867C27.7615 16.0877 26.9449 16.3485 26.4061 17.634C26.1847 17.2195 26.1452 16.6203 26.3048 15.843C25.9456 16.434 25.8375 16.948 26.0094 17.5985Z" fill="#62A73B"/>
<path fill-rule="evenodd" clip-rule="evenodd" d="M28.6159 24.36C27.4733 23.1005 29.6788 22.3112 30.0023 20.9372C30.7806 23.625 29.9291 23.5553 28.9722 24.5443C28.9137 24.0743 29.0887 23.502 29.5129 22.8402C28.9693 23.2522 28.6867 23.689 28.6159 24.36Z" fill="#62A73B"/>
<path fill-rule="evenodd" clip-rule="evenodd" d="M24.4111 28.2975C22.7647 28.5645 23.3844 26.229 22.4763 25.175C25.051 26.0275 24.5144 26.7178 24.7597 28.096C24.3526 27.881 23.997 27.4072 23.7108 26.67C23.7308 27.3682 23.9181 27.8573 24.4111 28.2975Z" fill="#62A73B"/>
<path fill-rule="evenodd" clip-rule="evenodd" d="M26.7552 28.1525C25.4629 27.0597 27.5501 25.9765 27.6972 24.57C28.8087 27.1283 27.9553 27.176 27.1322 28.2868C27.0145 27.8285 27.1161 27.2375 27.4522 26.5238C26.9659 27.006 26.741 27.478 26.7552 28.1525Z" fill="#62A73B"/>
<path fill-rule="evenodd" clip-rule="evenodd" d="M23.0567 23.3467C21.216 22.203 23.7691 20.779 23.765 19.019C25.3363 20.3435 25.1345 22.8392 23.5497 23.38C23.3297 22.862 23.4814 22.149 23.8167 21.291C23.2541 21.894 22.9431 22.5697 23.0567 23.3467Z" fill="#62A73B"/>
<path fill-rule="evenodd" clip-rule="evenodd" d="M30.4506 26.92C29.7519 25.458 32.0373 25.591 32.6021 24.283C33.1394 25.848 31.9985 27.714 30.7737 27.1827C30.7421 26.7062 31.0948 26.3563 31.7597 25.9228C31.0936 26.126 30.6959 26.385 30.4506 26.92Z" fill="#62A73B"/>
<path fill-rule="evenodd" clip-rule="evenodd" d="M20.4374 18.887C16.8011 17.0028 21.7348 13.939 21.6197 10.5857C24.2797 12.673 24.3678 17.7798 21.3795 18.916C20.9302 17.9418 21.1722 16.574 21.7613 14.9133C20.7251 16.1035 20.1741 17.4113 20.4374 18.887Z" fill="#62A73B"/>
<path fill-rule="evenodd" clip-rule="evenodd" d="M14.6053 30.0013C14.0104 30.7438 12.5009 30.509 10.4975 29.7428C11.8021 30.8318 13.1204 31.3185 14.4536 31.0313C13.3108 34.9508 8.95555 29.506 6.52648 30.0958C8.48635 27.2838 12.8835 26.6725 14.6053 30.0013Z" fill="#62A73B"/>
<path fill-rule="evenodd" clip-rule="evenodd" d="M33.6707 14.032C32.7586 12.7285 34.9657 12.2842 35.4573 10.879C36.2637 12.454 35.5646 14.6078 34.1175 14.2663C34.0581 13.7585 34.3472 13.294 34.9298 12.676C34.2355 13.0308 33.8445 13.3935 33.6707 14.032Z" fill="#62A73B"/>
</g>
</g>
</svg>
