<svg xmlns="http://www.w3.org/2000/svg" width="62" height="84" viewBox="0 0 62 84" fill="none">
  <path fill-rule="evenodd" clip-rule="evenodd" d="M40.7855 78.6V69.1934H42.1154V78.6H44.4706V69.1934H53.9204V70.477C53.5054 70.2191 53.1185 70.0901 52.7596 70.0901C52.4456 70.0901 52.1428 70.1781 51.8512 70.3539C51.5596 70.518 51.3185 70.7348 51.1278 71.0044C50.8474 70.6997 50.5334 70.4418 50.1857 70.2308C49.8381 70.0198 49.4511 69.8909 49.025 69.844C48.3969 69.8557 47.8586 69.9495 47.41 70.1253C46.9614 70.2894 46.5913 70.518 46.2997 70.811C46.0193 71.0923 45.8118 71.4264 45.6772 71.8132C45.5427 72.2 45.4754 72.6161 45.4754 73.0616C45.4754 73.5304 45.5427 73.9583 45.6772 74.3451C45.8118 74.7319 45.9913 75.066 46.2156 75.3473C46.4511 75.6169 46.7146 75.8279 47.0062 75.9802C47.309 76.1326 47.6287 76.2088 47.9651 76.2088C48.2679 76.2088 48.5483 76.1619 48.8063 76.0682C49.0754 75.9627 49.2997 75.8279 49.4792 75.6638C49.6698 75.4879 49.8156 75.2887 49.9166 75.066C50.0287 74.8432 50.0848 74.6088 50.0848 74.3627C50.0848 74.2103 50.0511 74.0403 49.9839 73.8528C49.9278 73.6652 49.8324 73.4894 49.6979 73.3253C49.5745 73.1612 49.4175 73.0264 49.2268 72.9209C49.0362 72.8037 48.8119 72.7451 48.5539 72.7451C48.3296 72.7451 48.1109 72.792 47.8978 72.8857C47.696 72.9795 47.5221 73.1202 47.3763 73.3077V73.2022C47.3763 73.1202 47.3819 73.0088 47.3932 72.8682C47.4156 72.7158 47.4661 72.5693 47.5446 72.4286C47.6231 72.2879 47.7352 72.1649 47.881 72.0594C48.038 71.9539 48.2455 71.9011 48.5035 71.9011C48.8175 71.9011 49.0866 71.9539 49.3109 72.0594C49.5465 72.1531 49.7483 72.2821 49.9166 72.4462C50.096 72.6103 50.2474 72.7978 50.3708 73.0088C50.4941 73.2081 50.6007 73.4074 50.6904 73.6066L50.9932 74.1517L52.5241 73.044L52.3054 72.6923L52.4736 72.5868C52.5858 72.5048 52.7259 72.4638 52.8942 72.4638C53.0624 72.4638 53.2082 72.4989 53.3316 72.5693C53.4549 72.6279 53.5559 72.7041 53.6344 72.7978C53.7129 72.8799 53.7746 72.9678 53.8194 73.0616C53.8643 73.1553 53.8923 73.2257 53.9035 73.2726L53.9204 78.6H56.2587V69.1934H57.6074V78.6H59.9626V69.1934H60.8037V67.6638H38.4304V69.1583C38.049 68.7597 37.5163 68.4139 36.8322 68.1209C36.1593 67.8279 35.3294 67.6814 34.3425 67.6814C32.9854 67.6814 31.3929 68.1795 29.5648 69.1759L31.0789 71.1451L31.449 71.3737C31.662 71.5026 31.9032 71.7312 32.1723 72.0594C32.4415 72.3759 32.6882 72.7978 32.9125 73.3253L31.2807 74.1517L32.677 76.0682L38.4304 72.833V78.6H40.7855ZM37.4883 70.9693L34.9481 72.2704C34.7911 71.8953 34.6004 71.5143 34.3761 71.1275C34.163 70.729 33.9163 70.4125 33.6359 70.1781C34.006 70.1077 34.3929 70.0726 34.7967 70.0726C35.2341 70.0726 35.6939 70.1429 36.1761 70.2835C36.6584 70.4242 37.0958 70.6528 37.4883 70.9693Z" fill="#62A73B"/>
  <path fill-rule="evenodd" clip-rule="evenodd" d="M13.0817 78.6V69.1934H14.4353V78.6H16.7905V69.1934H18.4681V74.1341C18.4681 74.2044 18.513 74.3158 18.6027 74.4682C18.7037 74.6088 18.8382 74.7553 19.0065 74.9077C19.1859 75.0601 19.399 75.1949 19.6457 75.3121C19.9037 75.4176 20.1897 75.4704 20.5037 75.4704C20.627 75.4704 20.7616 75.4645 20.9074 75.4528C21.0532 75.4293 21.2046 75.3883 21.3616 75.3297C21.9785 75.107 22.4775 74.8784 22.8589 74.644C23.2514 74.4096 23.5598 74.1751 23.7841 73.9407C24.0084 73.7063 24.171 73.4718 24.272 73.2374C24.3729 73.003 24.4458 72.7744 24.4907 72.5517L24.5411 72.3583L24.8103 72.411C25.1692 72.4813 25.4664 72.5868 25.7019 72.7275C25.9486 72.8682 26.072 73.0381 26.072 73.2374C26.072 73.5422 25.9206 73.8293 25.6178 74.0989C25.315 74.3685 24.9336 74.6147 24.4738 74.8374C24.014 75.0484 23.5149 75.2418 22.9766 75.4176C22.4383 75.5934 21.928 75.74 21.4457 75.8572C20.9635 75.9744 20.5485 76.0682 20.2009 76.1385C19.8532 76.2088 19.6457 76.2498 19.5784 76.2616L19.5616 78.266L27.2832 80.5693L28.2926 78.4066L23.9019 77.1583L24.3561 76.9824C24.3785 76.9824 24.3953 76.9766 24.4065 76.9649L24.457 76.9473C24.7486 76.8301 25.1131 76.6601 25.5505 76.4374C25.9879 76.2147 26.4084 75.9392 26.8122 75.611C27.2159 75.2828 27.558 74.9077 27.8384 74.4857C28.13 74.0638 28.2758 73.5949 28.2758 73.0791C28.2758 72.4931 28.1468 72.0183 27.8888 71.655C27.6309 71.2799 27.3056 70.9927 26.9131 70.7934C26.5318 70.5824 26.1112 70.4418 25.6514 70.3715C25.1916 70.2894 24.7654 70.2484 24.3729 70.2484C24.0364 70.2484 23.7224 70.266 23.4308 70.3011C23.1504 70.3246 22.9149 70.3539 22.7243 70.389L21.7654 70.1253C21.5747 70.0667 21.3841 70.0022 21.1934 69.9319C21.014 69.8499 20.8457 69.7444 20.6887 69.6154L20.4869 69.3341C20.4756 69.3224 20.47 69.3107 20.47 69.2989V69.1934H28.7636V67.6638H10.7434V68.7363L10.5583 68.6132C10.3901 68.5077 10.1882 68.4022 9.95271 68.2967C9.71719 68.1795 9.45364 68.0799 9.16205 67.9978C8.88167 67.9041 8.58447 67.8279 8.27044 67.7693C7.95642 67.7107 7.63679 67.6814 7.31155 67.6814C6.94145 67.6814 6.57136 67.7282 6.20126 67.822C5.83116 67.9041 5.46667 68.0564 5.10778 68.2792C4.76011 68.4901 4.42366 68.7773 4.09842 69.1407C3.77318 69.5041 3.47598 69.9553 3.20682 70.4945L4.36759 72.9385C4.67039 73.0088 5.09657 73.044 5.64611 73.044C6.19565 73.044 6.7508 73.0088 7.31155 72.9385L7.29473 72.9561C7.21622 73.0381 7.05921 73.1671 6.8237 73.3429C6.58818 73.5187 6.3078 73.7063 5.98256 73.9055C5.65732 74.1048 5.30965 74.3099 4.93956 74.5209C4.56946 74.7202 4.21618 74.8843 3.87973 75.0132L6.38631 76.3495V76.3319C6.47603 76.285 6.61622 76.203 6.80687 76.0857C7.00874 75.9568 7.23305 75.8044 7.47978 75.6286C7.72651 75.441 7.98446 75.2301 8.25362 74.9956C8.52278 74.7495 8.76391 74.4916 8.977 74.222C9.2013 73.9524 9.38074 73.6711 9.51532 73.3781C9.66112 73.085 9.73402 72.7861 9.73402 72.4813C9.73402 72.0945 9.66112 71.7781 9.51532 71.5319C9.38074 71.2857 9.2013 71.0982 8.977 70.9693C8.76391 70.8403 8.52839 70.7524 8.27044 70.7055C8.02371 70.6586 7.7882 70.6352 7.56389 70.6352C6.96949 70.6352 6.39752 70.7055 5.84798 70.8462C5.84798 70.811 5.89284 70.7466 5.98256 70.6528C6.0835 70.559 6.21808 70.4711 6.38631 70.389C6.56575 70.2953 6.77323 70.2132 7.00874 70.1429C7.25548 70.0726 7.53025 70.0374 7.83306 70.0374C8.30409 70.0374 8.78634 70.1605 9.2798 70.4066C9.77327 70.6528 10.2611 71.1334 10.7434 71.8484V78.6H13.0817ZM20.47 73.255L20.6383 73.2726C20.6495 73.2843 20.728 73.2901 20.8738 73.2901C20.9971 73.2901 21.1317 73.2784 21.2775 73.255C21.4345 73.2315 21.5803 73.1905 21.7149 73.1319C21.8495 73.0616 21.9672 72.9678 22.0682 72.8506C22.1691 72.7334 22.2364 72.5868 22.2701 72.411C21.9112 72.3407 21.6196 72.2704 21.3953 72.2C21.171 72.118 20.9915 72.0418 20.857 71.9715C20.7336 71.9011 20.6439 71.8425 20.5878 71.7956C20.5317 71.737 20.4981 71.696 20.4869 71.6726L20.47 71.655V73.255Z" fill="white"/>
  <path d="M52.7006 13.7799C62.1788 28.515 55.6045 48.9585 39.1648 54.4653C37.1386 53.4126 35.1706 53.1117 34.4674 52.9173C34.4674 52.9173 34.0067 47.5302 34.4674 45.1665C34.6663 44.1435 34.9272 42.3843 36.5811 41.6253C37.7434 41.0922 41.6011 38.8041 40.4725 32.3343C40.4725 32.3343 39.1507 37.6407 36.5395 38.3661C36.1342 38.4789 36.3082 36.9429 37.3946 35.7402C37.3946 35.7402 33.2472 35.1021 31.3895 44.3742C29.5327 35.1018 25.3844 35.7402 25.3844 35.7402C26.4708 36.9429 26.6454 38.4789 26.2401 38.3661C23.6283 37.6407 22.3068 32.3343 22.3068 32.3343C21.1782 38.8041 25.0359 41.0922 26.1979 41.6253C27.8521 42.3843 28.113 44.1438 28.3128 45.1665C28.7729 47.5302 28.3128 52.9173 28.3128 52.9173C27.5998 53.1138 25.5879 53.4198 23.5339 54.5073C7.06255 49.0866 0.334687 28.6092 9.87465 13.7802C-0.971045 28.227 3.95566 49.6917 20.1951 57.2811C38.1119 65.6523 58.4895 51.9765 58.4895 31.3152C58.4893 24.699 56.3264 18.6105 52.7006 13.7799Z" fill="white"/>
  <path d="M31.287 4.95782C44.648 4.95782 55.5379 16.0044 56.0598 29.835C56.6166 15.0678 45.3209 2.88452 31.287 2.88452C17.269 2.88452 5.95832 15.0477 6.51431 29.835C7.03614 16.0044 17.9258 4.95782 31.287 4.95782Z" fill="white"/>
  <path fill-rule="evenodd" clip-rule="evenodd" d="M19.0934 22.6203C20.5071 20.0637 17.6729 19.8402 15.9027 17.7009C14.8361 19.9146 16.1794 23.1807 18.4298 22.929C18.4206 22.1556 18.0825 21.213 17.2041 20.3424C18.4034 20.9835 19.0894 21.807 19.0934 22.6203Z" fill="#62A73B"/>
  <path fill-rule="evenodd" clip-rule="evenodd" d="M20.2427 16.9305C21.832 15.6648 19.5174 14.4135 19.5954 12.7203C18.0058 14.0979 18.1123 16.5678 19.536 16.953C19.7622 16.5603 19.8099 15.5853 19.5096 14.9508C19.96 15.4113 20.2663 16.3917 20.2427 16.9305Z" fill="#62A73B"/>
  <path fill-rule="evenodd" clip-rule="evenodd" d="M23.0146 13.0188C24.3591 12.6183 23.2193 10.7649 23.7342 9.73022C22.3206 10.389 21.6661 12.1704 22.7313 12.9366C23.0106 12.6558 23.124 12.0735 23.0643 11.2257C23.3005 11.9013 23.2245 12.4809 23.0146 13.0188Z" fill="#62A73B"/>
  <path fill-rule="evenodd" clip-rule="evenodd" d="M29.9107 14.0244C27.6313 13.4772 30.0844 10.3581 29.82 8.72402C32.0147 10.5006 32.0933 13.0698 30.6768 13.9176C30.2959 13.4997 30.0869 12.2412 30.2867 11.376C29.8562 12.072 29.7399 13.368 29.9107 14.0244Z" fill="#62A73B"/>
  <path fill-rule="evenodd" clip-rule="evenodd" d="M20.7261 33.909C19.4353 35.9478 17.5027 32.4522 15.9452 32.1372C18.3069 30.6135 20.6365 31.4382 20.8989 33.1218C20.3905 33.348 19.1899 33.111 18.4846 32.6118C18.9579 33.2769 20.0782 33.8466 20.7261 33.909Z" fill="#62A73B"/>
  <path fill-rule="evenodd" clip-rule="evenodd" d="M34.4261 14.3154C33.0609 13.908 34.1947 12.0963 33.8046 11.0895C35.2407 11.7588 35.7947 13.6419 34.714 14.2311C34.4786 13.8804 34.5125 13.3332 34.5099 12.5568C34.3322 13.1967 34.2794 13.7163 34.4261 14.3154Z" fill="#62A73B"/>
  <path fill-rule="evenodd" clip-rule="evenodd" d="M47.5328 37.5216C48.1255 36.1719 49.6663 37.6194 50.6773 37.3689C49.8276 38.7504 47.9622 39.0375 47.5698 37.8318C47.936 37.6416 48.449 37.7595 49.1835 37.8744C48.6051 37.593 48.1218 37.4601 47.5328 37.5216Z" fill="#62A73B"/>
  <path fill-rule="evenodd" clip-rule="evenodd" d="M49.3942 28.0278C48.8038 26.6769 50.8587 26.4033 51.3383 25.4394C51.7826 27.0153 50.772 28.6776 49.641 28.2012C49.7435 27.7863 50.1643 27.4581 50.7272 26.9523C50.1465 27.2256 49.7343 27.5211 49.3942 28.0278Z" fill="#62A73B"/>
  <path fill-rule="evenodd" clip-rule="evenodd" d="M45.3961 18.8955C44.7781 17.5587 46.8258 17.2386 47.2848 16.2636C47.763 17.8278 46.7879 19.5144 45.6481 19.0638C45.7405 18.6468 46.1544 18.3084 46.7064 17.79C46.132 18.0765 45.7253 18.3816 45.3961 18.8955Z" fill="#62A73B"/>
  <path fill-rule="evenodd" clip-rule="evenodd" d="M31.3292 27.0006C30.2778 26.0022 32.062 24.9042 32.1395 23.8209C33.1425 25.0851 32.8408 27.0303 31.6223 27.0576C31.5597 26.6346 31.8221 26.16 32.149 25.4625C31.7179 25.9533 31.4509 26.3949 31.3292 27.0006Z" fill="#62A73B"/>
  <path fill-rule="evenodd" clip-rule="evenodd" d="M38.7586 12.2274C37.3943 11.5293 38.9173 9.84693 38.6889 8.71053C40.0795 9.69813 40.3215 11.79 39.0775 12.1956C39.2537 11.7399 39.3933 11.1708 39.1651 10.395C39.1292 11.0808 39.085 11.6382 38.7586 12.2274Z" fill="#62A73B"/>
  <path fill-rule="evenodd" clip-rule="evenodd" d="M42.5733 30.429C41.9054 27.9315 45.3312 28.7844 46.6065 27.2529C46.7741 30.222 44.5648 31.563 43.049 30.7644C43.1592 30.2028 43.7915 29.6109 44.7987 29.2347C43.9158 29.349 43.0725 29.8515 42.5733 30.429Z" fill="#62A73B"/>
  <path fill-rule="evenodd" clip-rule="evenodd" d="M46.1048 25.6698C44.5634 23.6379 48.0382 23.0373 48.647 21.1089C49.9014 23.7789 48.3623 25.9089 46.6682 25.7868C46.5609 25.224 46.9251 24.4221 47.7136 23.6682C46.9429 24.1308 46.3513 24.9357 46.1048 25.6698Z" fill="#62A73B"/>
  <path fill-rule="evenodd" clip-rule="evenodd" d="M42.117 38.4417C43.5998 36.3627 45.047 39.7197 46.9868 39.8388C44.8389 41.7915 42.4746 40.7829 42.1525 39.0408C42.646 38.7879 43.4815 38.9496 44.38 39.5532C43.7545 38.8929 42.8595 38.5023 42.117 38.4417Z" fill="#62A73B"/>
  <path fill-rule="evenodd" clip-rule="evenodd" d="M12.9712 30.555C11.6844 32.772 9.93808 29.5746 7.9957 29.6493C9.95559 27.4914 12.4014 28.26 12.8799 29.9622C12.4123 30.2631 11.5664 30.1848 10.6169 29.6736C11.3004 30.2688 12.2272 30.5679 12.9712 30.555Z" fill="#62A73B"/>
  <path fill-rule="evenodd" clip-rule="evenodd" d="M20.8541 38.8119C22.3048 40.9158 18.8064 41.3475 18.1135 43.245C16.9785 40.5171 18.6109 38.4633 20.2967 38.6682C20.3791 39.2349 19.9798 40.0182 19.1586 40.7334C19.9494 40.308 20.5748 39.5331 20.8541 38.8119Z" fill="#62A73B"/>
  <path fill-rule="evenodd" clip-rule="evenodd" d="M22.1931 27.3201C23.0941 28.3566 22.7313 31.8153 24.7036 30.7248C24.182 30.2877 23.7325 29.4555 23.6229 28.6125C23.893 29.2668 24.3407 30.1833 24.994 30.4146C25.8267 28.5195 23.8192 27.1734 22.1931 27.3201Z" fill="#62A73B"/>
  <path fill-rule="evenodd" clip-rule="evenodd" d="M46.6728 35.7543C44.9971 34.8594 42.4729 36.8133 42.4318 34.2954C43.0972 34.6989 43.826 34.9122 44.7408 34.6839C43.9537 34.6542 43.1885 34.4985 42.6328 33.8763C44.1253 32.5233 46.2948 33.909 46.6728 35.7543Z" fill="#62A73B"/>
  <path fill-rule="evenodd" clip-rule="evenodd" d="M38.1538 15.1092C36.5467 18.0351 39.3335 22.602 35.7513 22.7157C36.4706 21.5541 36.6675 20.1915 36.2378 18.4806C36.1262 19.8903 35.805 21.2463 34.7389 22.1946C32.6456 19.4058 35.0957 15.6348 38.1538 15.1092Z" fill="#62A73B"/>
  <path fill-rule="evenodd" clip-rule="evenodd" d="M54.4661 33.4062C51.3917 32.3763 47.7027 36.1812 46.8456 32.544C48.0839 33.0357 49.3991 32.9517 50.9106 32.1546C49.5681 32.3346 48.2326 32.2914 47.1212 31.4001C49.2929 28.677 53.3338 30.3906 54.4661 33.4062Z" fill="#62A73B"/>
  <path fill-rule="evenodd" clip-rule="evenodd" d="M43.4692 18.912C42.0056 22.8717 35.5254 23.6358 38.2563 27.3858C38.7721 25.7349 39.8924 24.4542 41.8328 23.5389C40.4665 24.7548 39.2285 26.13 39.3806 27.9879C43.648 27.924 45.3989 22.4562 43.4692 18.912Z" fill="#62A73B"/>
  <path fill-rule="evenodd" clip-rule="evenodd" d="M12.0088 22.0455C14.847 25.08 20.9968 23.1765 19.9 27.7485C18.8029 26.4402 17.2773 25.719 15.2827 25.6422C16.8781 26.268 18.2857 27.1488 19.0191 28.8228C15.074 30.5193 11.6296 26.1867 12.0088 22.0455Z" fill="#62A73B"/>
  <path fill-rule="evenodd" clip-rule="evenodd" d="M22.8324 25.3425C23.5029 23.6754 21.5111 23.8794 20.9428 22.6629C20.359 24.9789 21.4115 25.3641 22.5459 25.623C22.4988 25.1553 22.3487 24.7158 21.7683 24.243C22.4081 24.5091 22.6053 24.7923 22.8324 25.3425Z" fill="#62A73B"/>
  <path fill-rule="evenodd" clip-rule="evenodd" d="M31.0112 21.1182C29.2115 20.2386 31.3223 18.3456 31.101 16.6641C33.1003 19.3053 32.1266 19.6182 31.4842 21.1608C31.2202 20.6634 31.1731 19.9443 31.3634 19.0116C30.9351 19.7208 30.8063 20.3376 31.0112 21.1182Z" fill="#62A73B"/>
  <path fill-rule="evenodd" clip-rule="evenodd" d="M34.1189 29.232C32.7567 27.7206 35.3862 26.7735 35.772 25.1247C36.7 28.35 35.6847 28.2663 34.5438 29.4531C34.474 28.8891 34.6827 28.2024 35.1885 27.4083C34.5403 27.9027 34.2033 28.4268 34.1189 29.232Z" fill="#62A73B"/>
  <path fill-rule="evenodd" clip-rule="evenodd" d="M29.1056 33.957C27.1425 34.2774 27.8813 31.4748 26.7986 30.21C29.8685 31.233 29.2287 32.0613 29.5212 33.7152C29.0358 33.4572 28.6119 32.8887 28.2706 32.004C28.2944 32.8419 28.5177 33.4287 29.1056 33.957Z" fill="#62A73B"/>
  <path fill-rule="evenodd" clip-rule="evenodd" d="M31.9004 33.783C30.3596 32.4717 32.8482 31.1718 33.0236 29.484C34.3489 32.5539 33.3313 32.6112 32.3499 33.9441C32.2096 33.3942 32.3307 32.685 32.7314 31.8285C32.1516 32.4072 31.8835 32.9736 31.9004 33.783Z" fill="#62A73B"/>
  <path fill-rule="evenodd" clip-rule="evenodd" d="M27.4907 28.0161C25.296 26.6436 28.34 24.9348 28.3352 22.8228C30.2086 24.4122 29.9681 27.4071 28.0785 28.056C27.8162 27.4344 27.997 26.5788 28.3969 25.5492C27.7261 26.2728 27.3552 27.0837 27.4907 28.0161Z" fill="#62A73B"/>
  <path fill-rule="evenodd" clip-rule="evenodd" d="M36.3065 32.304C35.4735 30.5496 38.1983 30.7092 38.8717 29.1396C39.5124 31.0176 38.1521 33.2568 36.6917 32.6193C36.6541 32.0475 37.0746 31.6275 37.8674 31.1073C37.0731 31.3512 36.5989 31.662 36.3065 32.304Z" fill="#62A73B"/>
  <path fill-rule="evenodd" clip-rule="evenodd" d="M24.3677 22.6644C20.032 20.4033 25.9146 16.7268 25.7774 12.7029C28.9488 15.2076 29.0539 21.3357 25.4909 22.6992C24.9553 21.5301 25.2438 19.8888 25.9461 17.8959C24.7107 19.3242 24.0537 20.8935 24.3677 22.6644Z" fill="#62A73B"/>
  <path fill-rule="evenodd" clip-rule="evenodd" d="M17.414 36.0015C16.7047 36.8925 14.905 36.6108 12.5163 35.6913C14.0717 36.9981 15.6435 37.5822 17.2331 37.2375C15.8706 41.9409 10.6778 35.4072 7.78157 36.1149C10.1183 32.7405 15.3611 32.007 17.414 36.0015Z" fill="#62A73B"/>
  <path fill-rule="evenodd" clip-rule="evenodd" d="M40.1459 16.8384C39.0583 15.2742 41.6898 14.7411 42.276 13.0548C43.2375 14.9448 42.404 17.5293 40.6786 17.1195C40.6077 16.5102 40.9524 15.9528 41.6471 15.2112C40.8193 15.6369 40.3531 16.0722 40.1459 16.8384Z" fill="#62A73B"/>
</svg>