<svg width="20" height="20" viewBox="0 0 20 20" fill="none" xmlns="http://www.w3.org/2000/svg">
<g clip-path="url(#clip0_26_1029)">
<path d="M0.833252 0.833374H4.16658L6.39992 11.9917C6.47612 12.3754 6.68484 12.72 6.98954 12.9653C7.29424 13.2106 7.6755 13.3409 8.06658 13.3334H16.1666C16.5577 13.3409 16.9389 13.2106 17.2436 12.9653C17.5483 12.72 17.757 12.3754 17.8333 11.9917L19.1666 5.00004H4.99992M8.33325 17.5C8.33325 17.9603 7.96016 18.3334 7.49992 18.3334C7.03968 18.3334 6.66658 17.9603 6.66658 17.5C6.66658 17.0398 7.03968 16.6667 7.49992 16.6667C7.96016 16.6667 8.33325 17.0398 8.33325 17.5ZM17.4999 17.5C17.4999 17.9603 17.1268 18.3334 16.6666 18.3334C16.2063 18.3334 15.8333 17.9603 15.8333 17.5C15.8333 17.0398 16.2063 16.6667 16.6666 16.6667C17.1268 16.6667 17.4999 17.0398 17.4999 17.5Z" stroke="white" stroke-width="1.67" stroke-linecap="round" stroke-linejoin="round"/>
</g>
<defs>
<clipPath id="clip0_26_1029">
<rect width="20" height="20" fill="white"/>
</clipPath>
</defs>
</svg>
